<?xml version="1.0" encoding="UTF-8" standalone="no"?>
<!-- Created with Inkscape (http://www.inkscape.org/) -->

<svg
   width="60.08007mm"
   height="59.518246mm"
   viewBox="0 0 60.08007 59.518246"
   version="1.1"
   id="svg1"
   xml:space="preserve"
   xmlns="http://www.w3.org/2000/svg"
   xmlns:svg="http://www.w3.org/2000/svg"><defs
     id="defs1" /><g
     id="layer1"
     transform="translate(-79.200737,-18.003386)"><rect
       style="fill:#ffffff;fill-opacity:1;fill-rule:evenodd;stroke-width:0.264583"
       id="rect13"
       width="12.7"
       height="39.158333"
       x="79.200737"
       y="38.363297"
       ry="0.97895831"
       rx="0.79374993" /><path
       id="path13"
       style="fill:#ffffff;fill-opacity:1;fill-rule:evenodd;stroke-width:0.264583"
       d="m 102.67479,29.272328 h 12.30105 c 0.61613,0 1.40348,0.36016 1.40348,0.80753 0,0 -0.0247,5.55546 -0.71217,8.21279 -0.63047,2.43717 -1.4526,4.97945 -3.07527,6.88041 -2.07892,2.43546 -4.9776,4.2919 -8.0176,5.19327 -0.608,0.18027 -1.89949,0 -1.89949,0 -0.61613,0 -1.11214,-0.36016 -1.11214,-0.80753 v -19.47894 c 0,-0.44737 0.49601,-0.80753 1.11214,-0.80753 z" /><path
       id="path14"
       style="fill:#ffffff;fill-opacity:1;fill-rule:evenodd;stroke-width:0.264583"
       d="m 102.69709,77.521618 h 12.54779 c 0.62848,0 1.43162,-0.36016 1.43162,-0.80753 0,0 -0.0252,-5.55546 -0.72645,-8.21279 -0.64311,-2.43717 -1.48173,-4.97945 -3.13695,-6.88041 -2.12062,-2.43546 -5.07744,-4.2919 -8.17841,-5.19327 -0.6202,-0.18027 -1.9376,0 -1.9376,0 -0.62848,0 -1.13444,0.36016 -1.13444,0.80753 v 19.47894 c 0,0.44737 0.50596,0.80753 1.13444,0.80753 z" /><path
       id="path15"
       style="fill:#c4952a;fill-opacity:1;fill-rule:evenodd;stroke-width:0.264584"
       d="m 126.0909,18.003386 h 12.31057 c 0.48715,0 0.87933,0.663629 0.87933,1.487956 v 56.542326 c 0,0.82433 -0.39218,1.48796 -0.87933,1.48796 H 126.0909 c -0.55473,0 -0.87932,-1.48796 -0.87932,-1.48796 0,0 0,-3.34966 0,-5.02449 0,-6.04061 -7.25652,-10.09585 -7.09479,-15.97075 0.14412,-5.2354 7.09479,-8.58505 7.09479,-13.82265 V 19.491342 c 0,-0.824327 0.39217,-1.487956 0.87932,-1.487956 z" /></g></svg>
