<?xml version="1.0" encoding="UTF-8" standalone="no"?>
<!-- Created with Inkscape (http://www.inkscape.org/) -->

<svg
   width="60.080055mm"
   height="59.518242mm"
   viewBox="0 0 60.080055 59.518242"
   version="1.1"
   id="svg1"
   xml:space="preserve"
   xmlns="http://www.w3.org/2000/svg"
   xmlns:svg="http://www.w3.org/2000/svg"><defs
     id="defs1" /><g
     id="layer1"
     transform="translate(-159.50672,-68.458787)"><g
       id="g10"><rect
         style="fill:#1a7a70;fill-opacity:1;fill-rule:evenodd;stroke-width:0.264583"
         id="rect8"
         width="12.7"
         height="39.158333"
         x="159.50671"
         y="88.818703"
         ry="0.97895831"
         rx="0.79374993" /><path
         id="path8"
         style="fill:#1a7a70;fill-opacity:1;fill-rule:evenodd;stroke-width:0.264583"
         d="m 182.98077,79.727733 h 12.30106 c 0.61612,0 1.40347,0.36016 1.40347,0.80753 0,0 -0.0247,5.55546 -0.71217,8.21279 -0.63047,2.43717 -1.45259,4.97945 -3.07527,6.88041 -2.07892,2.43546 -4.9776,4.2919 -8.01759,5.193267 -0.608,0.18027 -1.8995,0 -1.8995,0 -0.61612,0 -1.11213,-0.36016 -1.11213,-0.80753 V 80.535263 c 0,-0.44737 0.49601,-0.80753 1.11213,-0.80753 z" /><path
         id="path9"
         style="fill:#1a7a70;fill-opacity:1;fill-rule:evenodd;stroke-width:0.264583"
         d="m 183.00308,127.97702 h 12.54778 c 0.62848,0 1.43162,-0.36016 1.43162,-0.80753 0,0 -0.0252,-5.55546 -0.72645,-8.21279 -0.64311,-2.43717 -1.48173,-4.97945 -3.13695,-6.88041 -2.12062,-2.43546 -5.07744,-4.2919 -8.17841,-5.19327 -0.62019,-0.18027 -1.93759,0 -1.93759,0 -0.62848,0 -1.13444,0.36016 -1.13444,0.80753 v 19.47894 c 0,0.44737 0.50596,0.80753 1.13444,0.80753 z" /><path
         id="path10"
         style="fill:#c4952a;fill-opacity:1;fill-rule:evenodd;stroke-width:0.264584"
         d="m 206.39688,68.458791 h 12.31057 c 0.48715,0 0.87933,0.663629 0.87933,1.487956 v 56.542323 c 0,0.82433 -0.39218,1.48796 -0.87933,1.48796 h -12.31057 c -0.55473,0 -0.87932,-1.48796 -0.87932,-1.48796 0,0 0,-3.34966 0,-5.02449 0,-6.04061 -7.25652,-10.09585 -7.09479,-15.97075 0.14412,-5.2354 7.09479,-8.585047 7.09479,-13.822647 V 69.946747 c 0,-0.824327 0.39217,-1.487956 0.87932,-1.487956 z" /></g></g></svg>
